<svg width="24" height="20" viewBox="0 0 24 20" fill="none" xmlns="http://www.w3.org/2000/svg">
<path d="M8.93055 9.13647C8.93345 9.18892 8.93656 9.24209 8.9399 9.296M8.93055 9.13647L8.83262 9.17627C8.86954 9.219 8.90533 9.25893 8.9399 9.296M8.93055 9.13647C8.95878 9.16866 8.98629 9.19912 9.01304 9.2278L8.9399 9.296M8.93055 9.13647L8.9399 9.296M19.8855 9.878H19.8587L19.98 9.71765C20.2934 9.3036 21.0525 8.1943 21.7778 7.00748C22.1403 6.41435 22.4935 5.80319 22.7779 5.25092C23.0623 4.69859 23.2744 4.21183 23.3607 3.86273V3.86075L23.3639 3.84992L23.3643 3.84829L23.3645 3.84794L23.3647 3.84707C23.5475 3.21891 23.3789 2.82329 23.2148 2.60511C22.9651 2.27536 22.5635 2.1 21.9958 2.1H19.5348C18.7512 2.1 18.163 2.49064 17.8625 3.20959C17.5955 3.88806 17.0895 4.92003 16.5109 5.9049C15.9336 6.88758 15.2769 7.83617 14.7069 8.33712L14.5461 8.47838L14.5409 8.26445C14.5068 6.875 14.5299 5.81408 14.5479 5.02671L14.5479 5.02666C14.5495 4.95634 14.5513 4.88635 14.5531 4.8168C14.571 4.11846 14.5878 3.46397 14.4422 2.96699C14.3633 2.69758 14.2389 2.4839 14.048 2.33659C13.8574 2.1895 13.5894 2.1 13.2069 2.1H9.3389C8.87384 2.1 8.42092 2.35474 8.20542 2.75423C7.99394 3.14627 8.00078 3.69929 8.49803 4.32157L8.4981 4.32167C8.73064 4.61337 8.87112 4.87717 8.95132 5.16024C9.0311 5.44185 9.04949 5.73673 9.04577 6.08656C9.04379 6.27276 9.03559 6.47521 9.02643 6.70146C9.00105 7.32811 8.96828 8.13738 9.03971 9.28981L9.05696 9.56816L8.86677 9.3642C8.09412 8.53563 6.73626 6.32084 5.77744 3.49971C5.64478 3.12313 5.4825 2.77487 5.2217 2.52017C4.96451 2.269 4.60328 2.101 4.05496 2.101H1.59398C1.11249 2.101 0.740642 2.2321 0.490162 2.46073C0.24087 2.68829 0.1 3.02317 0.1 3.456C0.1 3.69798 0.167798 4.09092 0.305975 4.59916C0.443526 5.10509 0.648898 5.71845 0.919558 6.39842C1.46091 7.75847 2.26193 9.38122 3.2997 10.9398C5.37933 14.0632 8.38945 16.9 12.1449 16.9C13.0043 16.9 13.558 16.7636 13.9131 16.5599C14.2635 16.3589 14.4273 16.0883 14.5004 15.7976C14.5748 15.5014 14.5556 15.1829 14.5314 14.887C14.5298 14.8673 14.5282 14.8476 14.5265 14.8281C14.5162 14.7034 14.5061 14.5823 14.5048 14.4742C14.5034 14.3589 14.5116 14.2462 14.5467 14.1514C14.5427 13.688 14.539 13.2385 14.555 12.9622L14.5622 12.838L14.682 12.8717C14.9275 12.941 15.4617 13.2195 16.5355 14.2633L16.5368 14.2646C16.9526 14.6841 17.2908 15.0611 17.5841 15.3893L17.6124 15.4209C17.8943 15.7363 18.1328 16.0033 18.3616 16.2214C18.8293 16.6674 19.2459 16.9 19.8808 16.9H22.3418C23.089 16.9 23.4658 16.5929 23.6507 16.3461L19.8855 9.878ZM19.8855 9.878C19.88 9.88796 19.8748 9.89772 19.87 9.90706L19.8436 9.95805L19.8743 10.0065C19.9055 10.0557 19.9854 10.1446 20.0902 10.2563C20.1842 10.3566 20.3053 10.4825 20.4457 10.6284C20.4669 10.6505 20.4885 10.673 20.5106 10.6959C20.8473 11.0461 21.2823 11.5004 21.728 11.9984C22.1739 12.4967 22.6292 13.0373 23.0069 13.5598C23.3854 14.0836 23.6807 14.582 23.8131 14.9973C24.0131 15.6804 23.829 16.1077 23.6507 16.346L19.8855 9.878ZM4.05496 3.401H4.0549C3.43828 3.40136 2.94527 3.40121 2.56338 3.40109C2.40833 3.40104 2.2716 3.401 2.15235 3.401C1.94594 3.401 1.79177 3.40113 1.68574 3.40156C1.58334 3.40199 1.51929 3.40265 1.49993 3.40441L1.40116 3.41339L1.40932 3.51223C1.45046 4.01026 1.74403 5.013 2.25343 6.22912C2.7644 7.449 3.49701 8.89418 4.42409 10.2795C6.27331 13.0427 8.91864 15.6 12.1449 15.6C12.8147 15.6 13.0843 15.5298 13.1905 15.4881L13.2615 15.4601L13.2533 15.3843C13.2526 15.3776 13.2514 15.3682 13.2493 15.3593C13.2493 15.3592 13.2491 15.3582 13.2486 15.3564C13.2491 15.2647 13.2503 14.9838 13.2479 14.1837L13.2479 14.1831C13.247 14.0946 13.2459 14.0074 13.2447 13.9215C13.241 13.642 13.2375 13.3768 13.2462 13.1293C13.2575 12.8061 13.2895 12.5222 13.3657 12.2874C13.4413 12.0543 13.5589 11.8739 13.7398 11.7502C13.9218 11.6257 14.1788 11.551 14.5468 11.551C15.287 11.551 16.1223 12.0491 17.4514 13.342C17.9732 13.8684 18.3564 14.2986 18.6589 14.6383C18.7837 14.7783 18.8947 14.903 18.9961 15.0126C19.1681 15.1987 19.3149 15.3443 19.4527 15.4433C19.5923 15.5436 19.7294 15.601 19.8808 15.601H19.881C20.8372 15.5989 21.4253 15.6004 21.7962 15.6014C21.8761 15.6016 21.9459 15.6018 22.0072 15.6019C22.3482 15.6025 22.4305 15.6013 22.5095 15.5888L22.6139 15.5721L22.5915 15.4688C22.5348 15.2073 22.3382 14.8619 22.0783 14.4895C21.8157 14.1133 21.4791 13.6966 21.1291 13.2896C20.4425 12.4911 19.699 11.7237 19.348 11.3615L19.3278 11.3406C19.3277 11.3405 19.3277 11.3405 19.3277 11.3405C19.1075 11.1123 18.959 10.9509 18.9038 10.8842L18.8925 10.8706C18.5959 10.4786 18.5163 10.153 18.541 9.86866C18.5665 9.57588 18.7032 9.31225 18.8654 9.04728C18.8764 9.03025 18.8854 9.01651 18.8948 9.004L18.8961 9.00217C19.269 8.48077 20.0112 7.38262 20.6887 6.28308C21.0274 5.73331 21.3506 5.18203 21.6035 4.70167C21.8538 4.22639 22.0407 3.81061 22.1009 3.53305C22.1015 3.53079 22.1019 3.5288 22.1022 3.52716L22.1024 3.52627L22.1445 3.4H22.0058H21.9958H19.5348C19.4114 3.4 19.3107 3.41516 19.2299 3.47049C19.1491 3.52581 19.105 3.61014 19.0665 3.70254L19.0661 3.70348C19.0151 3.82937 17.7523 6.90877 15.9308 8.96564C15.0683 9.83785 14.3941 10.0396 13.9553 9.90126C13.5209 9.76428 13.2509 9.27014 13.2509 8.587H13.2509L13.2508 8.58397C13.2359 8.09195 13.2339 6.8274 13.2354 5.68151C13.2361 5.10904 13.2377 4.5669 13.239 4.16678L13.2406 3.68707L13.241 3.55317L13.241 3.51706L13.2409 3.50685L13.2409 3.5031L13.2408 3.50066L13.2407 3.49835L13.2402 3.49232L13.2298 3.4041L13.141 3.404L9.63301 3.4L9.42596 3.39976L9.5545 3.56208C9.83976 3.92232 10.2729 4.51234 10.3379 5.70772L10.3389 9.407C10.3389 9.40701 10.3389 9.40702 10.3389 9.40703C10.3389 9.64175 10.3378 10.0474 10.1958 10.3934C10.1255 10.5645 10.0225 10.7164 9.87177 10.8258C9.72181 10.9347 9.51721 11.007 9.2339 11.007C8.87457 11.007 8.46134 10.7654 8.01875 10.3245C7.57996 9.88747 7.12928 9.27158 6.69538 8.56149C5.82795 7.14186 5.03715 5.36151 4.54964 3.92585L4.54965 3.92584L4.54927 3.92477C4.50907 3.81067 4.47642 3.72178 4.44667 3.65374C4.4174 3.58679 4.38742 3.53143 4.34942 3.49028C4.26645 3.40043 4.16428 3.40071 4.06999 3.40097C4.06495 3.40099 4.05994 3.401 4.05496 3.401ZM17.5218 13.271C16.1938 11.979 15.3318 11.451 14.5468 11.451C13.1119 11.451 13.1265 12.5477 13.1448 13.9246C13.1459 14.0101 13.147 14.0966 13.1479 14.184L17.5218 13.271ZM22.3933 15.4991C22.3942 15.5031 22.3952 15.5072 22.396 15.5112L22.4938 15.49L22.478 15.3912C22.4744 15.3918 22.4708 15.3924 22.4671 15.3929C22.1397 14.3864 19.9615 12.1384 19.2759 11.4308L19.2558 11.41L22.3933 15.4991ZM22.1034 3.52096C22.1036 3.51989 22.1034 3.52112 22.1031 3.52266L22.1034 3.52096Z" fill="white" stroke="white" stroke-width="0.2"/>
</svg>
