<svg width="24" height="24" viewBox="0 0 24 24" fill="none" xmlns="http://www.w3.org/2000/svg">
<path d="M19.2274 3.18359H4.77257C2.1409 3.18359 0 5.33135 0 7.97086V16.0285C0 18.6685 2.1409 20.8158 4.77257 20.8158H19.2274C21.8591 20.8158 24 18.668 24 16.0285V7.97086C24 5.33135 21.8591 3.18359 19.2274 3.18359ZM23.0204 16.029C23.0204 18.1287 21.3189 19.8367 19.2274 19.8367H4.77257C2.68114 19.8367 0.979592 18.1282 0.979592 16.029V7.97086C0.979592 5.87159 2.68114 4.16319 4.77257 4.16319H19.2274C21.3189 4.16319 23.0204 5.87159 23.0204 7.97086V16.029Z" fill="white"/>
<path d="M16.3397 11.8229L9.55355 7.84824C9.40269 7.76007 9.2151 7.7586 9.06277 7.84579C8.91045 7.93297 8.81641 8.09509 8.81641 8.27093V16.2198C8.81641 16.3952 8.91045 16.5578 9.06228 16.645C9.13771 16.6881 9.22196 16.7096 9.3062 16.7096C9.39192 16.7096 9.47714 16.6871 9.55355 16.6425L16.3397 12.6688C16.4896 12.5811 16.5821 12.42 16.5821 12.2461C16.5821 12.0722 16.49 11.9106 16.3397 11.8229ZM9.796 15.3651V9.12514L15.123 12.2456L9.796 15.3651Z" fill="white"/>
</svg>
