<svg width="51" height="48" viewBox="0 0 51 48" fill="none" xmlns="http://www.w3.org/2000/svg">
<path d="M28.5575 22.402H27.8943V3.47789C27.8943 1.88842 27.0461 0.599976 25.9996 0.599976C24.9531 0.599976 24.1049 1.88842 24.1049 3.47789V22.4022H23.4417C21.8721 22.4022 20.5996 24.335 20.5996 26.719V27.0366C20.5996 29.4205 21.8721 31.3535 23.4417 31.3535H24.1049V44.5221C24.1049 46.1115 24.9531 47.4 25.9996 47.4C27.0461 47.4 27.8943 46.1115 27.8943 44.5221V31.3535H28.5575C30.1271 31.3535 31.3996 29.4205 31.3996 27.0366V26.719C31.3996 24.3348 30.1271 22.402 28.5575 22.402ZM27.026 28.4606H24.9732C24.3978 28.4606 23.9311 27.7519 23.9311 26.8777C23.9311 26.0036 24.3978 25.2949 24.9732 25.2949H27.026C27.6014 25.2949 28.0681 26.0036 28.0681 26.8777C28.0681 27.7519 27.6014 28.4606 27.026 28.4606Z" fill="#3BC1AE"/>
<path d="M8.7577 13.7685H8.09454V3.47789C8.09454 1.88842 7.24617 0.599976 6.1998 0.599976C5.15334 0.599976 4.30507 1.88842 4.30507 3.47789V13.7685H3.64191C2.07231 13.7685 0.799805 15.7013 0.799805 18.0853V18.4029C0.799805 20.787 2.07231 22.7198 3.64191 22.7198H4.30507V44.5221C4.30507 46.1115 5.15334 47.4 6.1998 47.4C7.24617 47.4 8.09454 46.1115 8.09454 44.5221V22.7199H8.7577C10.3273 22.7199 11.5998 20.7871 11.5998 18.4031V18.0855C11.5998 15.7013 10.3273 13.7685 8.7577 13.7685ZM7.22618 19.8271H5.17343C4.59799 19.8271 4.13132 19.1184 4.13132 18.2442C4.13132 17.37 4.59799 16.6614 5.17343 16.6614H7.22618C7.80162 16.6614 8.26829 17.37 8.26829 18.2442C8.26829 19.1184 7.80162 19.8271 7.22618 19.8271Z" fill="#3BC1AE"/>
<path d="M47.7577 9.45159H47.0945V3.47789C47.0945 1.88842 46.2463 0.599976 45.1998 0.599976C44.1532 0.599976 43.3051 1.88842 43.3051 3.47789V9.45159H42.6419C41.0723 9.45159 39.7998 11.3844 39.7998 13.7685V14.086C39.7998 16.4701 41.0723 18.4029 42.6419 18.4029H43.3051V44.5221C43.3051 46.1115 44.1532 47.4 45.1998 47.4C46.2463 47.4 47.0945 46.1115 47.0945 44.5221V18.4031H47.7577C49.3272 18.4031 50.5998 16.4703 50.5998 14.0862V13.7686C50.5998 11.3844 49.3274 9.45159 47.7577 9.45159ZM46.2262 15.5102H44.1734C43.598 15.5102 43.1313 14.8015 43.1313 13.9273C43.1313 13.0532 43.598 12.3445 44.1734 12.3445H46.2262C46.8016 12.3445 47.2683 13.0532 47.2683 13.9273C47.2683 14.8015 46.8016 15.5102 46.2262 15.5102Z" fill="#3BC1AE"/>
</svg>
