<svg width="60" height="60" viewBox="0 0 60 60" fill="none" xmlns="http://www.w3.org/2000/svg">
<path d="M29.9999 0.000259399C13.4578 0.000259399 0 13.4578 0 30.0001C0 46.5422 13.4578 59.9997 29.9999 59.9997C46.5421 59.9997 60 46.5403 60 30.0001C60 13.4578 46.5421 0.000259399 29.9999 0.000259399ZM29.9999 56.9845C15.1212 56.9845 3.01664 44.878 3.01664 30.0013C3.01664 15.1221 15.1212 3.0169 29.9999 3.0169C44.8782 3.0169 56.9831 15.121 56.9831 30.0001C56.9832 44.8785 44.8784 56.9845 29.9999 56.9845ZM29.9999 19.6631C24.3001 19.6631 19.6635 24.3003 19.6635 29.9991C19.6635 35.6987 24.3001 40.3361 29.9999 40.3361C35.6993 40.3361 40.3357 35.6997 40.3357 29.9991C40.3359 24.3004 35.6993 19.6631 29.9999 19.6631ZM29.9999 37.3192C25.9633 37.3192 22.6803 34.0354 22.6803 29.9991C22.6803 25.9636 25.9632 22.68 29.9999 22.68C34.0368 22.68 37.319 25.9636 37.319 29.9991C37.319 34.0355 34.0368 37.3192 29.9999 37.3192ZM52.7867 24.0061L42.7311 27.6247L41.7085 24.787L51.7648 21.1678L52.7867 24.0061ZM24.3022 18.4004L19.1063 7.82649C19.1063 7.82649 23.4637 3.79815 32.179 5.11253L30.5024 17.435C30.5024 17.435 27.1088 16.4678 24.3022 18.4004ZM39.8328 7.52879L33.1158 17.653L34.8128 5.59443C34.8119 5.5943 39.011 6.35916 39.8328 7.52879ZM22.2429 39.1575L14.7136 49.0566C7.6214 43.8242 7.38917 37.8946 7.38917 37.8946L18.5392 34.0903C19.1574 37.443 22.2419 39.1596 22.2429 39.1575ZM16.9159 50.5776L24.2437 40.8515L21.8353 52.7612C20.4266 53.0072 16.9159 50.5776 16.9159 50.5776Z" fill="#3BC1AE"/>
</svg>
