<svg width="60" height="60" viewBox="0 0 60 60" fill="none" xmlns="http://www.w3.org/2000/svg">
<path d="M46.4489 37.359C42.9502 37.359 39.8182 38.955 37.74 41.4568L24.2214 33.7814C24.6418 32.5984 24.8728 31.3264 24.8728 30.0008C24.8728 28.6754 24.6418 27.4034 24.2214 26.2204L37.7389 18.5432C39.8168 21.0458 42.9495 22.6423 46.4483 22.6423C52.6893 22.6423 57.7667 17.563 57.7667 11.3194C57.7673 5.07772 52.6898 0 46.4489 0C40.2071 0 35.1291 5.07772 35.1291 11.3192C35.1291 12.6448 35.3599 13.9171 35.7806 15.1003L22.2623 22.7778C20.1843 20.2766 17.0525 18.6811 13.5547 18.6811C7.31218 18.6811 2.2334 23.7588 2.2334 30.0005C2.2334 36.242 7.31218 41.3197 13.5547 41.3197C17.0525 41.3197 20.1841 39.7242 22.262 37.2233L35.7806 44.8989C35.3599 46.0821 35.1289 47.3547 35.1289 48.6805C35.1289 54.922 40.2069 59.9997 46.4486 59.9997C52.6895 59.9997 57.767 54.9217 57.767 48.6805C57.7672 42.438 52.6898 37.359 46.4489 37.359ZM46.4489 3.96099C50.5057 3.96099 53.8063 7.26181 53.8063 11.3192C53.8063 15.3787 50.5057 18.6811 46.4489 18.6811C42.3912 18.6811 39.0901 15.3787 39.0901 11.3192C39.0901 7.26181 42.3912 3.96099 46.4489 3.96099ZM13.555 37.359C9.49653 37.359 6.19465 34.0579 6.19465 30.0008C6.19465 25.9432 9.49653 22.6423 13.555 22.6423C17.6118 22.6423 20.9121 25.9432 20.9121 30.0008C20.9121 34.0579 17.6115 37.359 13.555 37.359ZM46.4489 56.039C42.3912 56.039 39.0901 52.7379 39.0901 48.6808C39.0901 44.6221 42.3912 41.32 46.4489 41.32C50.5057 41.32 53.8063 44.6221 53.8063 48.6808C53.8063 52.7379 50.5057 56.039 46.4489 56.039Z" fill="#3BC1AE"/>
</svg>
