<svg width="56" height="60" viewBox="0 0 56 60" fill="none" xmlns="http://www.w3.org/2000/svg">
<path d="M44.4489 37.359C40.9502 37.359 37.8182 38.955 35.74 41.4568L22.2214 33.7814C22.6418 32.5984 22.8728 31.3264 22.8728 30.0008C22.8728 28.6754 22.6418 27.4034 22.2214 26.2204L35.7389 18.5432C37.8168 21.0458 40.9495 22.6423 44.4483 22.6423C50.6893 22.6423 55.7667 17.563 55.7667 11.3194C55.7673 5.07772 50.6898 0 44.4489 0C38.2071 0 33.1291 5.07772 33.1291 11.3192C33.1291 12.6448 33.3599 13.9171 33.7806 15.1003L20.2623 22.7778C18.1843 20.2766 15.0525 18.6811 11.5547 18.6811C5.31218 18.6811 0.233398 23.7588 0.233398 30.0005C0.233398 36.242 5.31218 41.3197 11.5547 41.3197C15.0525 41.3197 18.1841 39.7242 20.262 37.2233L33.7806 44.8989C33.3599 46.0821 33.1289 47.3547 33.1289 48.6805C33.1289 54.922 38.2069 59.9997 44.4486 59.9997C50.6895 59.9997 55.767 54.9217 55.767 48.6805C55.7672 42.438 50.6898 37.359 44.4489 37.359ZM44.4489 3.96099C48.5057 3.96099 51.8063 7.26181 51.8063 11.3192C51.8063 15.3787 48.5057 18.6811 44.4489 18.6811C40.3912 18.6811 37.0901 15.3787 37.0901 11.3192C37.0901 7.26181 40.3912 3.96099 44.4489 3.96099ZM11.555 37.359C7.49653 37.359 4.19465 34.0579 4.19465 30.0008C4.19465 25.9432 7.49653 22.6423 11.555 22.6423C15.6118 22.6423 18.9121 25.9432 18.9121 30.0008C18.9121 34.0579 15.6115 37.359 11.555 37.359ZM44.4489 56.039C40.3912 56.039 37.0901 52.7379 37.0901 48.6808C37.0901 44.6221 40.3912 41.32 44.4489 41.32C48.5057 41.32 51.8063 44.6221 51.8063 48.6808C51.8063 52.7379 48.5057 56.039 44.4489 56.039Z" fill="#3BC1AE"/>
</svg>
