<svg width="24" height="24" viewBox="0 0 24 24" fill="none" xmlns="http://www.w3.org/2000/svg">
<g clip-path="url(#clip0_67_1163)">
<path d="M11.9998 0C5.38386 0 0 5.38281 0 11.9996C0 18.6163 5.38351 24 11.9998 24C18.6172 24 23.9996 18.6167 23.9996 11.9996C23.9996 5.38281 18.6175 0 11.9998 0ZM17.1933 9.54099L10.9086 15.8257C10.7199 16.0142 10.4712 16.1093 10.2248 16.1093C9.97655 16.1093 9.73018 16.0142 9.54084 15.8257L6.80757 13.0924C6.42968 12.7142 6.42968 12.1024 6.80757 11.7245C7.1854 11.3467 7.79719 11.3467 8.17509 11.7245L10.2248 13.775L15.8266 8.17291C16.2036 7.79551 16.8154 7.79551 17.1933 8.17291C17.5712 8.55137 17.5712 9.16316 17.1933 9.54099Z" fill="#3BC1AE"/>
</g>
<defs>
<clipPath id="clip0_67_1163">
<rect width="24" height="24" fill="white"/>
</clipPath>
</defs>
</svg>
