<svg width="387" height="387" viewBox="0 0 387 387" fill="none" xmlns="http://www.w3.org/2000/svg">
<g clip-path="url(#clip0_67_928)">
<path d="M58.2407 328.747C-16.466 254.04 -16.466 132.916 58.2407 58.2097C132.947 -16.4969 254.071 -16.4969 328.777 58.2097C403.484 132.916 403.484 254.04 328.777 328.747C254.071 403.453 132.947 403.453 58.2407 328.747Z" stroke="#00CCB3" stroke-opacity="0.2" stroke-width="4.35958" stroke-miterlimit="10"/>
<path d="M193.523 353.693C105.039 353.693 33.3081 281.962 33.3081 193.478C33.3081 104.994 105.039 33.2635 193.523 33.2635C282.007 33.2635 353.737 104.994 353.737 193.478C353.737 281.962 282.007 353.693 193.523 353.693Z" stroke="#00CCB3" stroke-opacity="0.2" stroke-width="4.35958" stroke-miterlimit="10"/>
<path d="M193.519 322.565C122.226 322.565 64.4321 264.771 64.4321 193.478C64.4321 122.185 122.226 64.3911 193.519 64.3911C264.812 64.3911 322.606 122.185 322.606 193.478C322.606 264.771 264.812 322.565 193.519 322.565Z" stroke="#00CCB3" stroke-opacity="0.2" stroke-width="4.35958" stroke-miterlimit="10"/>
<path d="M109.585 246.393C80.9109 200.406 94.9455 139.882 140.932 111.208C186.918 82.5344 247.443 96.569 276.116 142.555C304.79 188.542 290.756 249.066 244.769 277.74C198.783 306.414 138.259 292.379 109.585 246.393Z" stroke="#00CCB3" stroke-opacity="0.2" stroke-width="4.36699" stroke-miterlimit="10"/>
<path d="M193.521 260.354C156.587 260.354 126.646 230.413 126.646 193.478C126.646 156.544 156.587 126.602 193.521 126.602C230.456 126.602 260.397 156.544 260.397 193.478C260.397 230.413 230.456 260.354 193.521 260.354Z" stroke="#00CCB3" stroke-opacity="0.2" stroke-width="4.35958" stroke-miterlimit="10"/>
</g>
<defs>
<clipPath id="clip0_67_928">
<rect width="387" height="387" fill="white" transform="matrix(-1 0 0 1 387 0)"/>
</clipPath>
</defs>
</svg>
